<svg xmlns="http://www.w3.org/2000/svg" width="130" height="50" viewBox="0 0 130 50">
  <g id="Logo" transform="translate(-140 -23)">
    <text id="blo" transform="translate(140 62)" font-size="40" font-family="GoogleSans-Regular, Google Sans"><tspan x="0" y="0">blo</tspan></text>
    <path id="Union_1" data-name="Union 1" d="M29.919,64.6a8.214,8.214,0,0,1-3.14-4.04l3.08-1.32a6.1,6.1,0,0,0,2.26,2.86,6.381,6.381,0,0,0,3.74,1.1,6.418,6.418,0,0,0,4.9-1.84,7.274,7.274,0,0,0,1.741-5.2V53.88h-.16a7.473,7.473,0,0,1-2.82,2.54,8.6,8.6,0,0,1-4.14.98,8.929,8.929,0,0,1-4.82-1.36,9.653,9.653,0,0,1-3.46-3.8,12.665,12.665,0,0,1,0-11.1,9.616,9.616,0,0,1,3.46-3.82,8.921,8.921,0,0,1,4.82-1.36,8.606,8.606,0,0,1,4.14.979,7.352,7.352,0,0,1,2.82,2.58h.16V36.6h3.24V56.2q0,4.921-2.721,7.5a9.973,9.973,0,0,1-7.16,2.579A9.935,9.935,0,0,1,29.919,64.6ZM32.5,39.96a6.542,6.542,0,0,0-2.42,2.64,8.689,8.689,0,0,0-.9,4.081,8.806,8.806,0,0,0,.9,4.1A6.381,6.381,0,0,0,32.5,53.42a6.475,6.475,0,0,0,3.36.9A6.258,6.258,0,0,0,39.2,53.4a6.6,6.6,0,0,0,2.4-2.64,8.7,8.7,0,0,0,.9-4.08,8.79,8.79,0,0,0-.9-4.12,6.455,6.455,0,0,0-2.4-2.62,6.621,6.621,0,0,0-6.7.02ZM5.54,46.6A8.2,8.2,0,0,1,2.4,42.56l3.08-1.32A6.1,6.1,0,0,0,7.74,44.1a6.38,6.38,0,0,0,3.74,1.1,6.419,6.419,0,0,0,4.9-1.84,7.274,7.274,0,0,0,1.74-5.2V35.88H17.96a7.476,7.476,0,0,1-2.821,2.54A8.591,8.591,0,0,1,11,39.4a8.926,8.926,0,0,1-4.82-1.36,9.655,9.655,0,0,1-3.461-3.8A11.787,11.787,0,0,1,1.44,28.68a11.823,11.823,0,0,1,1.28-5.54A9.619,9.619,0,0,1,6.18,19.32,8.918,8.918,0,0,1,11,17.96a8.6,8.6,0,0,1,4.14.979,7.354,7.354,0,0,1,2.821,2.58h.159V18.6h3.24V38.2q0,4.921-2.72,7.5a9.976,9.976,0,0,1-7.16,2.579A9.935,9.935,0,0,1,5.54,46.6ZM8.12,21.96A6.548,6.548,0,0,0,5.7,24.6a8.7,8.7,0,0,0-.9,4.081,8.818,8.818,0,0,0,.9,4.1A6.387,6.387,0,0,0,8.12,35.42a6.48,6.48,0,0,0,3.361.9,6.258,6.258,0,0,0,3.34-.921,6.591,6.591,0,0,0,2.4-2.64,8.685,8.685,0,0,0,.9-4.08,8.779,8.779,0,0,0-.9-4.12,6.447,6.447,0,0,0-2.4-2.62,6.364,6.364,0,0,0-3.34-.9A6.371,6.371,0,0,0,8.12,21.96Z" transform="translate(194.56 6.04)" fill="#3138f6"/>
    <text id="y" transform="translate(249 62)" font-size="40" font-family="GoogleSans-Regular, Google Sans"><tspan x="0" y="0">y</tspan></text>
  </g>
</svg>
