<svg xmlns="http://www.w3.org/2000/svg" width="31.347" height="28.682" viewBox="0 0 31.347 28.682">
  <path id="path" d="M793.873,1074.682l-2.351-2.038q-4-3.527-5.642-5.172a56.234,56.234,0,0,1-3.918-4.232,15.943,15.943,0,0,1-2.978-4.545,12.515,12.515,0,0,1-.784-4.075,8.562,8.562,0,0,1,8.62-8.62,8.91,8.91,0,0,1,7.053,3.291,8.909,8.909,0,0,1,7.053-3.291,7.817,7.817,0,0,1,6.113,2.508,8.937,8.937,0,0,1,2.508,6.113,11.494,11.494,0,0,1-1.881,5.956,29.715,29.715,0,0,1-4.075,5.329c-1.411,1.411-3.918,3.762-7.366,6.9Z" transform="translate(-778.2 -1046)" fill="red"/>
</svg>
